<svg xmlns="http://www.w3.org/2000/svg" width="24" height="24" viewBox="0 0 24 24" fill="none" stroke="#2E7D32" stroke-width="2" stroke-linecap="round" stroke-linejoin="round">
  <path d="M2 22a3 3 0 0 0 3-3V9a3 3 0 0 1 3-3h12a3 3 0 0 1 3 3v10a3 3 0 0 0 3 3"/>
  <path d="M6 18v-1a2 2 0 0 0-2-2"/>
  <path d="M2 8v10"/>
  <path d="M18 16v-1a2 2 0 0 1 2-2"/>
  <path d="M22 8v10"/>
  <path d="M12 4v18"/>
  <path d="M8 4v4"/>
  <path d="M16 4v4"/>
  <path d="M8 22v-4"/>
  <path d="M16 22v-4"/>
</svg>